<?xml version="1.0" encoding="iso-8859-1"?>
<!-- Uploaded to: SVG Repo, www.svgrepo.com, Generator: SVG Repo Mixer Tools -->
<svg height="800px" width="800px" version="1.1" id="Layer_1" xmlns="http://www.w3.org/2000/svg" xmlns:xlink="http://www.w3.org/1999/xlink" 
	 viewBox="0 0 511.999 511.999" xml:space="preserve">
<g>
	<path style="fill:#FFFF55;" d="M46.243,293.799c-3.537,0-6.813-1.861-8.619-4.896c-1.807-3.035-1.878-6.797-0.187-9.898
		l82.199-150.776c1.755-3.221,5.135-5.226,8.806-5.226c3.673,0,7.051,2.004,8.806,5.226l82.199,150.776
		c1.691,3.101,1.62,6.863-0.187,9.898c-1.808,3.035-5.082,4.896-8.62,4.896H46.243z"/>
	<path style="fill:#FFFF55;" d="M301.389,293.799c-3.537,0-6.813-1.861-8.62-4.896c-1.807-3.035-1.878-6.797-0.187-9.898
		l82.198-150.776c1.755-3.221,5.135-5.226,8.807-5.226c3.672,0,7.051,2.004,8.806,5.226l82.199,150.776
		c1.692,3.101,1.621,6.863-0.187,9.898c-1.808,3.035-5.082,4.896-8.62,4.896H301.389z"/>
</g>
<g style="opacity:0.2;">
	<path style="fill:#414042;" d="M74.55,288.902c-1.807-3.035-1.878-6.797-0.187-9.898l72.542-133.064l-9.656-17.712
		c-1.755-3.221-5.135-5.226-8.806-5.226c-3.673,0-7.051,2.004-8.806,5.226l-82.2,150.776c-1.691,3.101-1.62,6.863,0.187,9.898
		c1.807,3.035,5.082,4.896,8.619,4.896h36.926C79.632,293.799,76.357,291.938,74.55,288.902z"/>
</g>
<g style="opacity:0.2;">
	<path style="fill:#414042;" d="M329.696,288.902c-1.807-3.035-1.878-6.797-0.187-9.898l72.542-133.064l-9.656-17.712
		c-1.755-3.221-5.135-5.226-8.806-5.226c-3.673,0-7.052,2.004-8.807,5.226l-82.198,150.776c-1.692,3.101-1.62,6.863,0.187,9.898
		c1.808,3.035,5.082,4.896,8.62,4.896h36.926C334.779,293.799,331.503,291.938,329.696,288.902z"/>
</g>
<path style="fill:#F0D355;" d="M45.002,446.775c-20.493,0-37.165-16.775-37.165-37.393V140.028c0-4.172,2.591-7.906,6.503-9.372
	c1.148-0.43,2.341-0.638,3.521-0.638c2.839,0,5.611,1.205,7.553,3.425l105.235,120.257l110.22-182.126
	c3.975-4.036,5.727-6.351,15.133-6.351c10.448,0,11.158,2.315,15.131,6.352l110.218,182.125l105.234-120.258
	c1.941-2.219,4.714-3.425,7.553-3.425c1.181,0,2.372,0.208,3.521,0.638c3.912,1.466,6.503,5.199,6.503,9.372v269.354
	c0,20.618-16.672,37.393-37.165,37.393H45.002V446.775z"/>
<g style="opacity:0.2;">
	<path style="fill:#414042;" d="M50.155,409.823V161.715l-24.741-28.273c-1.941-2.219-4.714-3.425-7.553-3.425
		c-1.181,0-2.373,0.208-3.521,0.638c-3.912,1.466-6.503,5.199-6.503,9.372v269.354c0,20.618,16.672,37.393,37.165,37.393h36.615
		C63.822,444.006,50.155,428.49,50.155,409.823z"/>
</g>
<polygon style="fill:#FFFF55;" points="256,230.467 283.922,282.329 334.974,310.69 283.922,339.053 256,390.914 228.078,339.053 
	177.025,310.69 228.078,282.329 "/>
<g>
	<path style="fill:#636052;" d="M256,213.937l-33.735,62.656l-61.378,34.098l61.378,34.098L256,407.445l33.733-62.655l61.378-34.098
		l-61.378-34.098L256,213.937z M278.109,333.318L256,374.382l-22.11-41.064l-40.729-22.627l40.729-22.625L256,246.999l22.109,41.066
		l40.729,22.626L278.109,333.318z"/>
	<path style="fill:#636052;" d="M500.409,123.317c-2.014-0.754-4.123-1.137-6.27-1.137c-5.157,0-10.059,2.224-13.45,6.101
		l-48.883,55.862l-32.529-59.667c-3.131-5.744-9.142-9.312-15.688-9.312s-12.558,3.567-15.688,9.311l-26.346,48.327L277.362,66.732
		l-0.645-0.654c-0.434-0.441-0.823-0.859-1.192-1.253c-4.805-5.143-8.766-7.438-19.525-7.438c-11.367,0-15.354,3.206-20.138,8.098
		l-1.224,1.246L170.46,172.778l-26.331-48.3c-3.131-5.744-9.142-9.312-15.688-9.312c-6.546,0-12.557,3.567-15.687,9.311
		l-32.541,59.689l-48.901-55.882c-3.392-3.879-8.294-6.103-13.452-6.103c-2.149,0-4.259,0.382-6.27,1.137
		C4.658,125.915,0,132.63,0,140.028v269.354c0,24.94,20.187,45.229,45.002,45.229h421.996c24.814,0,45.002-20.29,45.002-45.229
		V140.028C512,132.63,507.342,125.915,500.409,123.317z M381.663,131.978c0.382-0.702,1.121-1.139,1.926-1.139
		s1.543,0.437,1.926,1.14l35.291,64.735l-38.297,43.763l-31.563-52.155L381.663,131.978z M126.517,131.978
		c0.382-0.702,1.121-1.139,1.926-1.139c0.805,0,1.543,0.437,1.926,1.14l30.702,56.317l-31.58,52.182l-38.278-43.743L126.517,131.978
		z M496.327,409.382c0,16.297-13.156,29.556-29.328,29.556H45.002c-16.172,0-29.328-13.259-29.328-29.556V140.028
		c0-0.899,0.569-1.716,1.418-2.034c0.248-0.093,0.507-0.14,0.77-0.14c0.635,0,1.238,0.273,1.655,0.749l112.289,128.321
		L247.102,76.411c2.902-2.968,3.297-3.35,8.899-3.35c5.769,0,6.031,0.281,8.073,2.465c0.259,0.278,0.529,0.565,0.812,0.862
		l115.309,190.536l112.291-128.322c0.588-0.672,1.577-0.924,2.425-0.607c0.847,0.318,1.417,1.134,1.417,2.033v269.354H496.327z"/>
</g>
</svg>